<mxfile host="65bd71144e">
    <diagram id="lTAF8WPctl-G5FyxBenQ" name="Page-1">
        <mxGraphModel dx="1518" dy="610" grid="1" gridSize="10" guides="1" tooltips="1" connect="1" arrows="1" fold="1" page="1" pageScale="1" pageWidth="850" pageHeight="1100" math="0" shadow="0">
            <root>
                <mxCell id="0"/>
                <mxCell id="1" parent="0"/>
                <mxCell id="4" value="" style="shape=stencil(lVjbUlsxDPyavGrkq6xnSv+DGULJlBIm0NvfV2dSh1g+ZxneQpBiXVartXfp5vXx7mW/i/z6djp+3/8+3L897tKXXYyH58f96fBmn3bpdpduHo6n/bfT8efz/fnvl7vFcvn04/hr+YU/Z7+SKdXFK/Lf/99QOH/x9Wz/dHi+ss9CXJw9t237JKTZ2Uvcto9KnAZ7oRiAfaA02itJ2rYPFr8O9iFRFOBQSMcCBaUAMrATVAaHmCgXkEKkMIYUGymoqZVER4dkTWPQhNxr3h1yIAY55Oirmis1EFJhaq7NkTLAUWUqDkdCAhpdlep4QrW6gZBEKI19qAXm0KxN7oRGBVSpNaoOq9x7v+qgqWP54pCoZOAgHWoXh0oJYEmV2pi0KGWEVmZiHjxa7IjfiqmMA9Fq55DNrN0JFhMoUxNfJjU8AmxYjjqCSTMEkwSSMQetVBH6om+ECmx1sRNcSK23Zn3kAulYJetlUjDU0bdaLyOyThvZ04Y5CDhh5sp3eK3nQDKmcIWu9Rw8MpYDwIgGatXbF8D2xkrBNwExK1MQbx9BhabZWYYDxpMciiruQKf1K/sAfj9SdKArEBKJavX2aJRLZ9xrezQ2nrPNvqC5nGagdPmwzhTUpnpCPu3RXvUrIuqa+tXg3mx+C5q9gHgsX/f7Cund6jmNvKC1PBGpdg7YwsM08IqkC8Xm7SsSUxOLKtzhPIm79sF8zfOI6sNd617ZM/x9cfWx1Qf6a3zl4i8wnjTxT4HbO094sHkEfPtZ+1CnlWEOSJraCphPAIiwLZbD5IBSNok1OSDxa9KUJ3GAZF2xneJQlKBeqULVjYENBjhBLABXJaYKcmjcI75IKNOeYDBb8ZNjIq2AEywAcQ6xB7l+gvp7kTS4a0zVueE0LYsaZ3o8uhMSFGkWgNMfpvMY0LtEfzk1xR9Qp0uXAxeHTBkQRilepBm6FOSQbUGOJxSM1nTZeJerWuussz6ira+Yi4OVATmwZzE7E23lkP0dPnHX2xtrM44pLDQCZQiP9kGhDMmeti1CxGLVy5DA8Dph/+aRAKTT4FaBsn9EgTSs/kkhQdmy7P0xngjXWpr2WujKfwtzeZxM7lfnrUej6O3RtWCBfPP2SOYUHz/DR6xSve5ieNUqk07jfrtbt28dLu/1RPvAOMHp9gDxs2yoMZ4Il6zZZ/fCBK9BZh883tAusHxdvzIFMC/LU4+joP6msNUvt5xyn9AtPLh4PpAIn3wE/djePry/uD4cnp7OD7bX//cvtPbV+XU33f4D);lineShape=1;" vertex="1" parent="1">
                    <mxGeometry x="140.5544699132588" y="73.42567797079619" width="43.05379478067471" height="85.93282698235566" as="geometry"/>
                </mxCell>
                <mxCell id="5" value="" style="shape=stencil(lVZBctswDHyNrhiQIAHynKb/yEyc2lPXzjhO2/w+UDVUDUZE2ptMYyVggV1woruX/cPzbor4cr2cv+9+HR6v+4m+TDEeTvvd5XDVp4nuJ7p7Ol923y7n19Pj8vv5YY6cn36cf85v+L3gaoKYZlTEt+UkZSjlz8nXBXA8nG4AUiChAXAGoTGACRIZgFQoPAYkgcoGUBFiHQMCgdiUAiIgjhEV2AJqhSjjeKXEllDXk834CFL6CjCN4xHEVlwiZCf/tbqV0uTWi5Cl71ly80/BxGdpFA/4oWjjQ2N4wD/a92vPxRk67TBWC2Bgh9AgEGzHUgFyMppbYCnNsZG2DdCxtsLJWpXHaQbMtgkM1Sl6ZtVOkWTg4AASkG1zIaiOcLTPwdZQA0RHmqFA7YSgffAAWrRNSZXG0QEg1NwDPKkJoB29Km4JBGwnqSoJnrm0sVk5zRCc9yMEO9rCrp+qtVlGuTRHHuTD1ioY26hvuylEy2emZuADPsXyqcIRRwchfAAwiDOlMyD8DyBhI3AF+G6quuo2zmzIDkDdthMOATk9LqnfUMG136Kk2iZ8sp4++DU2s9mOpzbya8EQnZnT7dUNka4DR5QqKe5kD+zMhEoWO34SFK9g1bgteF5ZDuBmwa8IdleafiLZHlB0jaKWnlRSGrID0AS6JfVJGzbvXo4X/cNlTR/+XvWeDsfjclO8/b+/GurRcq2k+3c=);lineShape=1;" vertex="1" parent="1">
                    <mxGeometry x="198.69725065312855" y="73.64682361327255" width="17.334937054593865" height="8.24499684816169" as="geometry"/>
                </mxCell>
                <mxCell id="6" value="" style="shape=stencil(lVfZbhsxDPwavxKSSB18TtP/CBCnNurageNef18aC9kWd3eKvK29nBWP4ZDa8NPH7uV9u0nh43I+fd/+3r9edhv+sklpf9xtz/uLPW34ecNPb6fz9tv59PP4Ov1+f7laXp9+nH5dv/BnwkUlTldUCn+nfxLp9MfXyf6wPz7Y2+taBvso1BgAMimPBzAldIKS5AHAiXJZBzBTHAGSSBoAFKpxAGSLStcBEqiMMZREBQEyyXhCjZRBlnIg1RGgFCIAVErjCU1IZB1QKuWx0BpIQAytUQgjIMKg7bXOAAqC1kw8ckmt0qBwai6NdVDGAKXigja2grQaQOsIKJ1da4Awkk8rCWCrfU9lBDQqAQCYWhsBtw5ZBgSK1QNQT7fiuXRPwzLA+it5AKqDkTk2HzSqQy3UZmmtIIaaqTguFdgPBqiOS5kCoHetFFxaGSqfBZ3dCSYzOK1NPCCAGKxwxaU1dmlbo4YTMgM0RD6h1LxLjHradCn7LCG5N+akWYsy4FIMYSZMVksUhBXCAWoXkrUg3JAzuiZQCHPZyfc1LORS9EPOAKghWvVkesjDKkI+hbChFtSHXUDYYk3s8iRd0pcnr6nlSCejcAbssNleR5daIAbil2Z6XFOv/jJAuvreZjtDAU+hU+G2PdgQAqWLxbskTAxcirYruA3IAEiaPDdsxVLQQtLb5caM3E9ctJ81HHfdWTMfx4npGvA+9NFxN4+AEtFrXuy71jKDvB4FauDr2Q8qoxuQ7Nql6m6OZoj6xRM3ZEx+37HRjuzFa2mAvDFmRvHJAf0ea18AH3KP7Fufdw+lBTz77GXk//b2cL/5vO0Ph+ni9Pje35Tsr+mWxc//AA==);lineShape=1;" vertex="1" parent="1">
                    <mxGeometry x="209.04761626401114" y="58.208691561049136" width="16.81496089938696" height="49.514147265799465" as="geometry"/>
                </mxCell>
                <mxCell id="7" value="" style="shape=stencil(lVfLctswDPwaXTEgwQd4TtP/yEyc2lPXzjju6+8LVaFsQBLa3GQZSwLLXRAa6OFt//S6GyK+XS/nr7ufh+frfqBPQ4yH0353OVzlaaDHgR5ezpfdl8v5++l5+v36NEaOT9/OP8YVfk24VoDiiIr4e3pDBLX+ffN5AhwPpzsAFwisAKlAytuAGiFpQCFovA0oCbgqgCzxnuQqIBeoTQEYAcs2IHH/ewYUiMEBIARSgBaA0jaAIhTUgATNqSEwVANogOjQCkmfW0B0ARmQFxs4GUVomiORihcvhIQFRU48QjSHliE5+c/VzapgaG68kd1NiBv5FyPTAkzOES9kHSE78RmKVnWRipx40WhS8bl1Ta3nj12R8wYBouPkEK31R+c1ByCdwVAqJTjWDwmycbL4zLHNCDCiiN3bWymxcbKvain6vVndGTN6OyBkY0z+x7lFzar4jJ1mlIGTjc+OTgmKaUUVopNPADb5U1fWhm+yJoil1TgyEglo33MAdAjFroBZE7NKNvKPev3CXSQbfYuNqmfZrvd2aGZ9hOLwI2xrfsSX2W3UH4uXhFAXkOVucAREFYKuICcgRxEp2fsyNahOyXlhmnEJp4axtWnjS5LsASqQbi2E/c26y9DaJswX3Cqgoe0U0vAdVlvsHPZ4dEkVV5mpxb+O23zb3eI9Stt8G/X46F6XbTHjJHfqGqcBTSgDees3O7BIaw2ej3FxgwcZPr0jaNBMydib3xYgaWFL0Z6whaSqrSNVJ2+HarsvBdfNH56v/wMgD7dx/uVwPE5fA/f/2/FfXk2fDvT4Bw==);lineShape=1;" vertex="1" parent="1">
                    <mxGeometry x="207.033266026187" y="70.20655644702481" width="33.27157078126015" height="12.064218404874282" as="geometry"/>
                </mxCell>
                <mxCell id="8" value="" style="shape=stencil(rVfZbhsxDPwavxK6RT6n6X8EiFMbde3Aca+/L7eGtkvaO22Avu2hkXgMh9QmP7ztnl63mxTeLufT5+33/fNlt8kfNintj7vteX/Rp01+3OSHl9N5++l8+np8vr6/Pk0rp6cvp2/TDj+uuFgphwmVws/rl0yNf3/4eF1/2B+X6zuVbNbHTDEAgBCLBTDlvA5IicRaNJnUAKBRcgChWABAqFqTcqHpdQ2QG+VqACWSyDpAf7uoFqYeAaBQs4BaKCAAU7E+tEAVhLUmqmwBjQpIXO3e6Z6IQZRaphQtQCgggFAvBsCFSl8HdB7cnAFqJABIoGR9YKYEEifZh1UBDQFuqMEC2SpM1UZJIiwg0SjZE0TzgE4QEgcoY4s1QOgW0AZZ7gP6KJcZwBSRScVXnJ6ZAb01JqV6gAB6a5pifhegjApemgRUg9OQrYXTCSSOA5Xmw9qASVou1QEKMYiSArrLg4onAKhJ4nxQ8gFqcPbUmOgN6oHrMGBRQEj5eNbqfy3RROUGUBCg+jzomQnTm63MqI7AepAbtqYhPPebYggUrN5rqiPQyukIZ1OFLUidEBsm/dKQVlaqDsAkyOs0Gs6igjrihobdnrCIw39CtHITJ9Uy1OZ0uHC5i5RAlZY2KmbRtTqaHmQ0tbkvatcCcdJppFpy9AAJm4MXDu3FSPySksMCKhOjkal6vlY8AaU4pG6egDRuaLAsfk7M2mVAT4l6guVGjsSA4Np4rVjq4IjGxOo9SGFMdfezQMUqn7pUwP5KZMvUOlrY2nI3Ug5pXlmebYZVycHucfTv2VkKaOb2vTCOQl0JDdvQhDHurkTeZSpQRGOhH8GwRIi/LsyJWNFqku7WF9DQosqiNwfJqN6f2GncGIvXCqVbexIcON99w/vren34c5182R8O19vo8r+/fuqn69U1P/4C);lineShape=1;" vertex="1" parent="1">
                    <mxGeometry x="216.88487111908057" y="100.21935433474277" width="27.568782875089482" height="48.22569674313456" as="geometry"/>
                </mxCell>
                <mxCell id="9" value="" style="shape=stencil(7VrJch03DPyad2UR3HF2nP9wleVIFUVyycr29wHzzHnD5kyrfMghVbppAWZIAmh0g3OJH77df/p6dwn+2+vL8693fz58fr2/xJ8uITw83d+9PLzaT5f48RI/fHl+ufvl5fn3p8/X379+6pb9p9+e/+hP+OvqF6vLtXsF//f1L6rOy79/+fnq8PjwtHcITtLskFyJ5w4huxYnh5ZcYA7i6uxQswv13EGqizI5lOSSEofovJ8ccnClnTs018pkn7xL5dw+uzg/356QyPODazrZS3Oe2ItLEDRXyQF5F2H59Dw9nk5wPlDz+fTFZbJ27wKaS2bm3x82zL2r5OTtYR7MU2LmNYG5kMQJI+o3c0/WHl0IaO6ZueJWPdmqlZ2COSurjEXiaUpa1aJ5I0lQnMwnIyPMJ+YxgnkhYVIX5qgmpywJBCFHXSJHI3aUc6DsL42lTcWs7GlJ9tv/DTVVnJI39GSYzz8aaJGiDXUgxubQKCh0zJjzJ0WXWXoKLilVioJxe94Gs35A+7FDdjLHLVcKPd1hfkOxIiAFHC1xwMEWyZaUXMyzQ6EAZJsu4KCuMZCwhjofq7U71r0sDnkOXFWarfaGNqNci6NBHTss5dkqDZy1Q2QRwUUSuGT9dt60Gj4ROLLcjIsD23RPZuApZVT5mUMC0LD0JqeUFhahbXCjs02Hhg6NoEYS5BFGziLJJYsDFJA5VJZ8baD6zkEJasSKLVD8G12tHKyJFsRSo+aQGSWNmN+dwzLYiOPfu0BEVnJh9MpdbhR2TH7J7w3Qz9BYZthoOprYGd5ncDAwJJteO7rBhpI4hKUrVk6re8+ac8Ogj/aspeSMuAvJJSNgOi8pKyfWFjhwyJRUmQNw5SzO8037GfqsKzIk6+Qb2Hgc8uLYoQwKu1MfDAU625nfYFXLjrXXwxwHq0EWOHtemJPPmhITLAZ9kN6miIRBXxl8anPIdNMWpgQMK4w+eexQUNSJcoor2ORuwvPYITsFWbdB26FD9QuL5nuoFUu0UXLSlpIuNLkNtOKcehzFdCuumz07UmvJIPUTFVQG04sQYFrT+kCYI8CTqDc/oIejZZ/az/utb9lDZTaq2Wy/i9D3TCdVBCOlsxmLF3Iep8w+ooxRng9hXU8muKKmDzCfmdCzHlkb2LMe2BTZfB0Vd2YPfd/IDF8/wFweQHlsL5ifiUowO0/UbHRYpwnXHynhtHoUBXumUi3fYH5icomdTxvk8nY+rM/c2OvNngp/v8yuCuU49gIYotTBMM420IB1jYicHRAKIyqZdWkZSrnBj9pbQuscMBGKWKYUgXFJpMPDWjBFxXQXWVK1FgdvaDQGpeKcLMhoU8cOcYDC5hBpH85Lm+kcjCwpm+gHBx2q55jebDi+I1CNJFJaOrdRNAalxhHbvKRO2piKqihZ4hvaMeIebJFUOwpWc2p8fuqRohnLY8calzFbTnxaI8i4TFAwhO97WAZI9A2mQOByoo2DPjtW6Pl167qnQzAQdo2L04rZalVO53KKk7/G9XISnI92JsBm2e/jne/t6H288/8Y70AL6uNLNs4vS7r6MWM9m0MAcTDtxqRU74EAGzrI2eloBKhPondlxu1gltLHO2wPBa8kynYjduagy/yfXQ72tgx4L/Qit+s/INBv3MxGnJpZk8tsWiML5eZjBWM7YensTJRLQtETNkZ07CBjILUjTGxJW1feUTiGARk/CRBPyydgWy/0OuL9Pvr8IN/vo084/396H10W9k7HJgU/7+AisOHJSKUKSjxO0TogsCxL43Juj1HMoY0OveFsoIOHXuIL9FcG/RWB2boR7dmy3H9EOoI2agMx1sAV1HpHWSh5MgeYBhqNoHwuLt9SVYom3WHedOekjIiHhahw9dE3ndBB+RtwSUqn4l0bLHSOddSuZJc3sI8tOk0OiwOjc4oNsjswhtkGy9jvgb2hLYNQpfzvx7/Le9vBfrh9Bvjl4fHx+hXh/v/42aD96frJYfz4Dw==);lineShape=1;" vertex="1" parent="1">
                    <mxGeometry x="261.1910709984611" y="64.09297145343669" width="46.512561855302465" height="80.7039920075066" as="geometry"/>
                </mxCell>
                <mxCell id="10" value="" style="shape=stencil(lVjLbhsxDPyavRKSSOpxTtP/CBCnMerGgZO+/r5cGBuvKO+4AXJwvBxT5JAjcie+e3t+eN1NKby9n47fd7/3j+/PE3+ZUtq/PO9O+3f7NPH9xHdPx9Pu2+n48+Xx/P/rw2w5f/px/DX/wp8zThOlMKNS+Hv+Rmj+z/6+nu0P+5eVvTCl0tkrxbhtz5midvaZQt22t5/LtbMvVAuwDxT781eqbds+qj9/DBQYAOxx7yAmyiBDjULq7ZU0bNtXktbbNyoggkaxD2BmQEEAkbg/EEfKGQCElHuA+QScxUqlB0ilgEhjYldEhQQB7HHuqyhTAqxxoCZ9GTEV4IGZWp+lGohBWq2wtS/sqovP64DmO6EFEgCQRCH2AKYKgpYhSy0v3X0VoHXpxQ+AxQCylJVK8gBEXBFidyShCoK2JAYZgkbtpr74mkkaUCTLSSkeEMGRmilQHDwAHpr1g3gAylJrA3GJKmhRA9Tms8RQxQYZm/MK6ttclIE5xmdK0QMqIqISuyD0FhESPQBFbVSzDgAUtD0WD4DFJAuxq6AbAvBS/iuAILln0kEF2g1A8gBYfbzcsKvqa0Dv7cTeQyJFHkwkggck5CGTDB5ulcbY1MiDXbvqAYwAVt4DoCBhsgaqnocIsnS9RzM+U3UuBAr+LDTJAzJirlIeejRgIsrQcpDqzwKqXbwu6AKDLupvaotKQQfZbOGlry0z1NY96iammRmglRqWrF+m0A/yt+Zubd4FUqbLzLZKkwAPNtCkoZgaiNpGpuKUKcKes7nTtdDMJUiTzcbai6UNZQ3ot43C4rYHgUGn6DvIyIf7Q6HcU23kw+E4+fq24RjN99UvZNzgicSHzKatKALKPWuWNAWX6Lj/NCgZo71JDKJgWRVWC1kE58nL9nVZEBNef9xlZSMu2n6KH9NlIXBrl3ELKC/qsVXTbnRLt7qsuX0P1ptEf7FZU2IpSv15jEAQr8Zl5FrZox0j+Q0gwN1Q2a+rdkB0fvH7cICaYvZVnT2SFLWRMLp8CtBds3eaFSG/s30fr+0KoPzNPmVn35C9+MuM4Zxj9kGn/69n48vdMwIHhM++cLptbx8ub7ee9ofD+eXY+rl/G2Zfnd+k8f0/);lineShape=1;" vertex="1" parent="1">
                    <mxGeometry x="333.85693469252715" y="50.29454753123878" width="47.446788746655784" height="95.96254748769502" as="geometry"/>
                </mxCell>
                <mxCell id="11" value="" style="shape=stencil(rVjLbhsxDPwaXwlJpF7nNP2PAHEao2kcOOnr7ztbQ1uL60xRoLe1zTFFcjgid6c3r493L/tdCq9vp+Pn/ffD/dvjTj/sUjo8P+5Phzc87fR2pzcPx9P+0+n49fn+/PnlbrFcnr4cvy3/8OOMsyQ9LKgUfp6/qWLt9xcfz/ZPh+cLe+1S62Qfk8RKACZhdhCbROIBBwhtAiSVrAQQJNgM6KLEQzSJ85G0SsoEED3AimihAJtjyPAQCABliBOgJKnsSCZ99lCQVqNZSnOWKhIdCaBIKBOgqRirdBx1XQFFjAStRWqaAVVKeh8AstbmAb0TQBeLGwChRs5Sigc04qGg0psYMqFGqYM5KyBLJYWrtglaJZLCtTiSuFa6Sydp7UEsz4A8an8dkEQdwESZBxtEuAAkBkB/VQ+ohHy9ebYihk6y1Luk7vshc0BXn1ZjMaxZXwsHshAhW4606ThlgDY6eAUYrzTS6gBliOd7hVP1AEZvUMOldREBImQgnzoAepB0XGvSzAfN5B4NWZ2HNLr8PYBv0cCPBOY4LjWpRPkQgzm2Fmkshj5+vqA35VIcJ75ooEyO1NWLMQDsnu6QLd14YORDlmwTA+/pbj5LnbG1+0ovdWD3dAh+OkGpGQIu8ix9IFNlUTc/CoCutHJlIxtrpv8PYFGVWVzRtY1IH+oU50LAZyRNjUsuzjqDNLAs5ebv3YvSXEckf8uhNOymtiwtewBLk2KgUg9QNs8Ef8uB8pWNulGaK4TS8QRTX3FyjCGOBI1BNM0eFu0jPbe5UeqqbdfLMNyv9pFSKUl2Y2umk0Pw6waYksh5Nv2cI6VRGFfHOtkbtU8SZtZhdWDnN79eYUpOrDeHhK67DMYYtgckzwiQiiUIEWfXaZlHXP16FcFz4gEROp0vUthKaYMxawhj3bpunz2HeEqxZjjJRgrYHoMlxJw9EzvohDs/Vy6s0G51C0NorlMo+h4LdB/GluRG4Ugvctg7YUx0JjT1S5VKIPmBfXXbM31jsNjP/5/pFLycx/ONTZz/+srj7/Z4+PN+5eHw9HR+PXP5u38fg6/O73L09hc=);lineShape=1;" vertex="1" parent="1">
                    <mxGeometry x="378.21579761108137" y="63.48157409476789" width="44.92561572117961" height="45.8128282939947" as="geometry"/>
                </mxCell>
                <mxCell id="12" value="" style="shape=stencil(lVfLctswDPwaXTEkwec5Tf8jM3FqTV0747ht8veFqqFiQNJOe5NlLAUsFg8O/PB2fHo9DMG93a6X74ff4/PtOPCXIYTxfDxcx5s8Dfw48MPL5Xr4dr38PD/Pv1+fJsvp6cfl13TC+4yLnmKbUMF9zG9SJuf/vvk6A07j+Q4QGoWkAZ583gfEQCUrQGbycR+QHVWvACVQZQjwqxhaAy41clUBOFF2+wD2lHUMIXTetlmqncQO8I0Y0ZqoaVp9oghYEkBxGuApIJcKBR10IUYxO0pBk0QVnC8UeuMQRRBxXJ0vaQzAPlNY2QPdiSyzSQEloCLRjNfnR3IF2EshFMMnOl9UWkyGxSFcB6wTJpLIFXhULUMiugQoTZGi/oLIOidYOEnHLCQVVPzcC3EBpJ6WbRVV4mABSBYszcS4xMSocFpP6wJwFEEMIfdCXGjNVIAyxONkEie0IkCmpKVR+wm7PViHEKmBkIWjqM8P5HESsrZ3uJQjMRt7B1qLyKg2Y99QaUZbOgz9n+yjtQf+VE9Vty5JYQWiq81W2qRbEEETSehmJBygSvNuoXAZm9LfgUxbtZ+oogoUtbissyBeMvApBztB7rzcTrS3o7zFLsVtZbNtwhKEB8TWzsnShF2vjU37FauiFUarQmdkSXTuIe0FYGpfXCyopcpUNVoN8AsprcRd8SCsFHW34NbXmb3Bk80klEkFSBJhmH3qM6o9gNkJp+kOOp4AzDCPFQ4eKZa8XlNBHmScN93DEsP9KMm41zFIZhxgSZRmlkhZOSIaz8sCtQBkh0PlVlfqLhQRQFxi6xLcnP/3uvAPAHn4vJ28jKfTfLm5/9/eZuTVfBPixz8=);lineShape=1;" vertex="1" parent="1">
                    <mxGeometry x="424.85969639860605" y="67.38749903522876" width="15.384599572925936" height="21.14651120978226" as="geometry"/>
                </mxCell>
                <mxCell id="13" value="" style="shape=stencil(nVjZctRADPyafVXNjOZ8DvAfqUpCtghJKgnX39NmsVnJdi/w5l27ravV0vigV6/318+3hxRe316ePt1+O9683R/03SGl4+P97cvxDVcHfX/Qq7unl9uPL09fHm9Ov5+vpyenq89PX6c3fD/hcpeeJlQKP37/o9L01z8fToCH46MFtG4ApUoMFKAWUIvESgBNsgW0LIlZUMnZAEaSmPYBGiXboEeTQVxKKjVYAGyOfUCs0qyFniSQGGKUMGyWUBlioUqxHhWVEEnMkmxStUkp+8+H2fr8PN7QGns+WH9ikkwCHhKLeT7Q/KQopVlSSCTh4nZW60+eabWdnyTdkggmB2NdEnURD6mEdSVLsSWAk4mktIIy1fYmYiBBo7Ec62CTkaLCYxt0VSl5H9B0dmApQ5RGaNSGdBt0j1IJALcdUeGkkrQC4FwqiIoEvQZAogKhBmIINksgSyZy0SB5jkugO6k0ANWyNRXpJIYprZYaKc213wt6WGqg4RLR+Q62WgGInae1eXoDwMg3woaFwgDqO24SDcKlUbzOI0uZ1GFAtrOvQyFpHYsKLYA+E37PgtNtcCkSnR9ZhhU+LVT5MPvqSumVVRpcchYWOm4DqnT1gE76oasfJgAwtQdb1U4HxZLBdGn4nUGVyj06LtsGUvQDqcMEcFyqMniLuhimLYJYQNDR9XSYa7+X1motxEWp9grnhujUosylRUnPAIn1A/pr5VImXAK9u+vpOOvIXgNlB8hUjLcBTDWGXx1ypC0aw2r5meYua+rho8borkyY+sy1Ze6CfSyveJ8lE2rJOgi31VqYxJDPLLd1n+Vhe9to8xr/l1t0QdSWTR0W+Io1rIW2KMk2IMzyvhQiUsHPqxYqy5a2DVjG7MKmQBd7yEp0YtnmNOydNRwg8QNWVH/WwOmDuQRAXisTAxS/9UGOKWD4JsUpcJA6oIddWlE4JvjYwJo7QKT56Lt9IAjzJryQr0ggDYEQU/EWmApMg9xxqV4EOC7xwzoAupIyNrQAcDoDtjLtw1zublL3ef/YBiy79hm92U6mYz6nnu0CbBGd1Hq9PBALOMk5Nb4EyJ6tl1wqfl2/EDTYH8O/pHU6wqxkhhUOgGqV7wI1/udL0SUALv58mLo7Pjycvmud3/cfsvDX6SOYvv8J);lineShape=1;" vertex="1" parent="1">
                    <mxGeometry x="445.2605688005599" y="49.40939425979741" width="30.760634893824772" height="27.673361198958446" as="geometry"/>
                </mxCell>
            </root>
        </mxGraphModel>
    </diagram>
</mxfile>
